Coordinates
version=1
nRows=17
nColumns=36
inDegrees=yes

Units are S.I. units (second, meters, Newtons, ...)
If the header above contains a line with 'inDegrees', this indicates whether rotational values are in degrees (yes) or radians (no).

endheader
time	pelvis_tilt	pelvis_list	pelvis_rotation	pelvis_tx	pelvis_ty	pelvis_tz	hip_flexion_r	hip_adduction_r	hip_rotation_r	knee_angle_r	knee_angle_r_beta	ankle_angle_r	subtalar_angle_r	mtp_angle_r	hip_flexion_l	hip_adduction_l	hip_rotation_l	knee_angle_l	knee_angle_l_beta	ankle_angle_l	subtalar_angle_l	mtp_angle_l	lumbar_extension	lumbar_bending	lumbar_rotation	arm_flex_r	arm_add_r	arm_rot_r	elbow_flex_r	pro_sup_r	arm_flex_l	arm_add_l	arm_rot_l	elbow_flex_l	pro_sup_l
      1.26000000	      5.82243463	      0.47112897	      2.62954912	     -0.45924911	      1.19104603	     -0.57030724	      9.92933168	     -0.44999102	    -17.24356995	      5.61369569	      0.09797747	    -22.81060478	      4.44155594	     -6.97461374	     12.32790905	     -4.11442257	    -11.30606166	      6.79268957	      0.11855480	    -24.87863287	      8.29399836	     -6.97461374	    -12.25516206	     -0.18881069	    -14.74364897	     -7.33140500	    -60.32510527	     -0.84057775	    137.43422571	    109.85017411	    -67.05590756	    -36.28896776	    -73.98411853	    134.92875133	     92.87801530
      1.27000000	      6.62777027	      0.42612688	      2.96549694	     -0.44749894	      1.16950457	     -0.57126448	     10.07845217	     -0.83857062	    -17.35039518	      7.74003906	      0.13508917	    -23.65159471	      2.53117361	     -7.10482491	     12.57836983	     -4.37912154	    -10.73740043	      9.65684071	      0.16854367	    -25.92678295	      7.69709498	     -7.10482491	    -13.02671223	     -0.03775375	    -12.74884191	    -21.61225462	    -58.67937414	    -14.56561735	    140.37086573	    110.19684217	    -66.71015463	    -36.34563093	    -72.28997663	    135.72413301	     93.23786597
      1.28000000	      7.52104182	      0.41811160	      3.20481433	     -0.43628210	      1.14699052	     -0.57219476	     10.43897799	     -1.28015608	    -16.80383324	     10.53881651	      0.18393705	    -25.03171436	      0.63913421	     -7.17075835	     12.93327260	     -4.53838623	     -9.56051513	     12.92584431	      0.22559854	    -27.06293704	      6.24519131	     -7.17075835	    -13.89809415	      0.11579668	    -11.18833898	    -32.05901692	    -55.62339779	    -24.72833271	    142.56684484	    110.78260036	    -66.42775771	    -35.52961448	    -70.65619458	    136.41601226	     93.66153748
      1.29000000	      8.42125851	      0.44793631	      3.42939125	     -0.42575382	      1.12359406	     -0.57300050	     11.05800450	     -1.67763528	    -15.21281475	     13.85256240	      0.24177282	    -26.59263740	     -1.13278908	     -7.22246735	     13.56869171	     -4.51254851	     -7.65251570	     16.58111645	      0.28939508	    -28.11677949	      4.16334971	     -7.22246735	    -14.81763201	      0.23662375	    -10.15716084	    -38.68609801	    -51.98706798	    -31.19989879	    144.04092832	    111.33188214	    -66.16136700	    -33.88360214	    -69.16724705	    136.90478982	     94.04798041
      1.30000000	      9.14051814	      0.42873003	      3.55906398	     -0.41615600	      1.09916956	     -0.57347178	     12.30532830	     -1.87274900	    -12.83432302	     18.53781925	      0.32354598	    -24.53871929	     -2.95485994	     -7.27886327	     14.69638579	     -4.40898081	     -5.57544412	     21.07818021	      0.36788364	    -26.31235844	      1.96105574	     -7.27886327	    -15.65937101	      0.34785388	     -9.48216031	    -42.33066352	    -48.21867627	    -34.95358546	    144.85742032	    112.12836842	    -65.82357351	    -31.50130986	    -67.71058906	    137.17679647	     94.68065149
      1.31000000	      9.84007355	      0.39493009	      3.52985439	     -0.40724122	      1.07356228	     -0.57349594	     14.08759047	     -1.86363485	    -10.56834529	     25.38558739	      0.44306208	    -16.31438856	     -5.86249134	     -7.30977175	     16.07730450	     -4.35411904	     -4.23859012	     27.07432993	      0.47253620	    -18.84655608	     -0.97972155	     -7.30977175	    -16.51435266	      0.28269337	     -9.62745089	    -42.65844959	    -45.43139891	    -34.98578644	    145.04083138	    107.88712614	    -66.00970098	    -27.92955488	    -66.44367754	    137.81048868	     92.67756123
      1.32000000	     10.52734970	      0.48551827	      3.38717269	     -0.39854315	      1.04681103	     -0.57341348	     15.99885414	     -1.91303581	     -8.93020344	     33.28335989	      0.58090422	     -2.98454161	     -6.38905159	     -7.35315799	     17.51953110	     -4.32036333	     -3.65986991	     34.07424477	      0.59470776	     -6.40562846	     -2.17518210	     -7.35315799	    -17.49725195	      0.26603607	     -8.50196742	    -44.69747396	    -41.19636808	    -37.82818474	    145.12410669	    112.63585270	    -65.06899067	    -26.05977003	    -64.26713252	    137.32982386	     94.43191958
      1.33000000	     10.95692880	      0.39667004	      3.20491739	     -0.39120967	      1.02101006	     -0.57283813	     17.70148129	     -1.36441340	     -7.47784737	     39.47625297	      0.68899059	      6.64503133	     -8.36272375	     -7.37341466	     19.12620064	     -4.53137208	     -3.37746737	     40.35319908	      0.70429619	      4.05691808	     -3.03385236	     -7.37341466	    -18.22241674	      0.24675709	     -8.32620101	    -43.51279827	    -38.08122862	    -36.69321909	    144.42645932	    110.67592323	    -64.18099689	    -23.08784867	    -61.92957793	    136.90058238	     93.36623091
      1.34000000	     10.22887650	     -0.05378831	      3.04329875	     -0.38591057	      0.99693497	     -0.57181234	     20.32592952	     -0.21343984	     -6.34887009	     43.89678361	      0.76614340	     12.07822006	    -11.47026304	     -7.38774145	     21.97552246	     -5.05408000	     -3.15816738	     45.49557518	      0.79404758	     10.99262602	     -3.91517458	     -7.38774145	    -17.78698861	      0.57486073	     -7.97745417	    -41.33594841	    -34.59689050	    -34.89393063	    142.51348065	    110.77729176	    -62.01654188	    -20.37930090	    -58.49011663	    135.26995986	     93.07922923
      1.35000000	      8.43149983	     -0.67475639	      3.00660875	     -0.38236481	      0.97516299	     -0.57096169	     24.48321686	      1.16874849	     -5.06006003	     48.26832276	      0.84244116	     14.49514275	    -15.38308022	     -7.41029436	     26.03852292	     -5.44541789	     -2.50468170	     49.93997759	      0.87161704	     14.95471603	     -5.98752787	     -7.41029436	    -16.24155436	      1.16615629	     -7.79852644	    -38.12206574	    -30.95992663	    -32.66928014	    139.13000210	    114.04550380	    -58.77207646	    -17.80119065	    -54.54890616	    132.13770014	     95.37628157
      1.36000000	      7.07399276	     -1.15000640	      3.08303301	     -0.38000698	      0.95698540	     -0.57062330	     28.79631276	      2.45705986	     -3.28294649	     53.49977312	      0.93374719	     14.72542507	    -19.05725917	     -7.42179384	     29.78604300	     -5.36755368	     -1.16878280	     54.34287648	      0.94846212	     17.16692036	     -8.17794292	     -7.42179384	    -15.34103477	      1.72328432	     -7.85245614	    -34.14779662	    -27.51710177	    -30.11049605	    135.21016269	    113.27565019	    -54.87553326	    -15.38802000	    -50.60956300	    128.60132130	     94.44526666
      1.37000000	      6.97753491	     -1.40080230	      3.29744300	     -0.37860761	      0.94301913	     -0.57078721	     31.65412043	      3.44474553	     -1.68203396	     58.60631802	      1.02287321	     15.36087942	    -20.34677622	     -7.42323511	     32.21527531	     -4.87626960	      0.59382748	     58.60292501	      1.02281399	     18.32954835	     -9.78855416	     -7.42323511	    -16.13868657	      2.18795427	     -7.81384698	    -29.95690006	    -24.25363211	    -28.12456793	    130.87539852	    113.08202478	    -50.28060526	    -13.60964525	    -46.91130410	    124.59464639	     94.23850284
      1.38000000	      7.76661259	     -1.62614416	      3.48971237	     -0.37803902	      0.93241206	     -0.57077320	     32.62983388	      4.36194438	     -0.72984881	     62.06981048	      1.08332256	     16.06040710	    -21.33441423	     -7.42396388	     33.36496209	     -4.49822420	      2.08653543	     62.15592876	      1.08482561	     18.97538290	    -10.85087483	     -7.42396388	    -18.24313009	      2.61064438	     -7.66698632	    -25.63307479	    -21.31296687	    -26.36790893	    126.57712854	    112.82494285	    -45.52491258	    -12.17068359	    -43.54447325	    120.78362246	     93.96199697
      1.39000000	      7.97841817	     -1.84540551	      3.86253979	     -0.37765675	      0.92228894	     -0.57108371	     33.44875384	      4.99147399	     -0.43151724	     64.13185351	      1.11931200	     16.92073956	    -22.70597258	     -7.42650395	     34.69453544	     -4.03343587	      3.33586232	     64.85737100	      1.13197467	     19.52511656	    -12.07780755	     -7.42650395	    -19.70596184	      3.03717920	     -8.09579604	    -21.23909414	    -19.30493266	    -23.46694059	    122.45081257	    113.16364119	    -41.28942948	    -10.78719634	    -40.59619342	    117.37916457	     94.03514152
      1.40000000	      8.08848578	     -1.66745292	      4.24697358	     -0.37699496	      0.91324020	     -0.57168225	     34.04840668	      5.12169101	     -0.09870383	     65.74756968	      1.14751157	     18.14187059	    -23.89378410	     -7.42725575	     35.47516546	     -3.23257121	      4.07479229	     66.66432562	      1.16351198	     20.67374676	    -12.87346025	     -7.42725575	    -21.06211266	      3.11563908	     -8.14983820	    -17.65289457	    -17.56696938	    -21.17459431	    119.25944262	    113.07042730	    -37.09939569	    -10.49890454	    -37.06155883	    114.29843340	     93.91596728
      1.41000000	      7.54576764	     -1.47528292	      4.69417945	     -0.37624169	      0.90425911	     -0.57255878	     35.39623549	      5.04497089	      0.09437637	     67.47100565	      1.17759120	     19.21502580	    -24.66400294	     -7.42869817	     36.85090823	     -2.39952209	      4.63516724	     68.21989940	      1.19066186	     21.68877188	    -13.41555469	     -7.42869817	    -21.56540220	      3.16057288	     -8.27650623	    -14.40579708	    -16.75011462	    -18.38545479	    116.74786136	    113.14797845	    -33.28211915	    -10.78399580	    -33.40209667	    111.79371684	     94.06647415
      1.42000000	      6.93227715	     -1.46932974	      5.05484742	     -0.37589441	      0.89679750	     -0.57336292	     36.72253783	      5.06185975	      0.18062415	     68.90586318	      1.20263419	     20.04169783	    -25.11004749	     -7.42943629	     38.25239680	     -1.84743043	      5.10960353	     69.52416907	      1.21342566	     22.44050936	    -13.89027955	     -7.42943629	    -21.98532772	      3.35240165	     -8.14171124	    -11.25305578	    -16.62747978	    -15.35158196	    114.71459185	    113.27802732	    -29.41497137	    -11.60405456	    -29.56832459	    109.82698070	     94.22338149
